<svg width="23" height="16" viewBox="0 0 23 16" fill="none" xmlns="http://www.w3.org/2000/svg">
<path fill-rule="evenodd" clip-rule="evenodd" d="M6.82844 0.499847C7.44252 0.488445 8.05573 0.551403 8.65469 0.687347C9.15899 0.797448 9.63778 1.00233 10.0656 1.2911C10.4608 1.57824 10.7734 1.96429 10.9722 2.41047C11.2006 2.95913 11.3108 3.54979 11.2956 4.14391C11.3216 4.79627 11.155 5.44183 10.8166 6.00016C10.4606 6.52748 9.96848 6.94862 9.3925 7.21891C10.1741 7.42964 10.8549 7.91232 11.3125 8.58016C11.7517 9.28778 11.9725 10.1092 11.9472 10.9417C11.9617 11.6055 11.8244 12.2638 11.5459 12.8664C11.2885 13.3921 10.9116 13.8503 10.4453 14.2042C9.96527 14.5543 9.42508 14.8132 8.85156 14.9683C8.25681 15.1328 7.6424 15.2155 7.02531 15.2139H0.25V0.499847H6.82844ZM6.4375 6.4511C6.91999 6.47099 7.39495 6.32655 7.78469 6.04141C7.97134 5.87525 8.11653 5.66773 8.20867 5.43544C8.3008 5.20315 8.33732 4.95252 8.31531 4.7036C8.3278 4.41286 8.26991 4.12341 8.14656 3.85985C8.04193 3.65 7.87923 3.47461 7.67781 3.35453C7.47381 3.22236 7.24461 3.13394 7.00469 3.09485C6.74437 3.04442 6.47948 3.02148 6.21438 3.02641H3.31938V6.46422H6.4375V6.4511ZM6.60625 12.7155C6.89804 12.7194 7.18923 12.6879 7.47344 12.6217C7.73316 12.5644 7.97948 12.4578 8.19906 12.3077C8.41418 12.1577 8.58798 11.9558 8.70438 11.7208C8.83934 11.4211 8.90134 11.0937 8.88531 10.7655C8.91457 10.4663 8.87495 10.1645 8.76949 9.88301C8.66402 9.60155 8.49551 9.34797 8.27688 9.14172C7.81347 8.80041 7.24557 8.63133 6.67094 8.6636H3.31938V12.7155H6.60625Z" fill="white"/>
<path fill-rule="evenodd" clip-rule="evenodd" d="M16.3188 12.6611C16.5597 12.8844 16.8435 13.0564 17.1529 13.1666C17.4623 13.2769 17.7909 13.323 18.1188 13.3023C18.6385 13.3155 19.1481 13.1574 19.5691 12.8523C19.9116 12.6297 20.1709 12.3001 20.3069 11.9148H22.7547C22.4939 13.0116 21.857 13.9822 20.9547 14.658C20.0891 15.2325 19.0662 15.5234 18.0278 15.4905C17.2867 15.5002 16.5512 15.3609 15.865 15.0808C15.2443 14.8219 14.6876 14.4306 14.2338 13.9342C13.7817 13.4141 13.4344 12.8115 13.2109 12.1595C12.9602 11.4308 12.8374 10.6642 12.8481 9.8936C12.8436 9.13593 12.9704 8.38321 13.2231 7.66891C13.5626 6.66402 14.2117 5.7925 15.0773 5.17941C15.9428 4.56633 16.9803 4.24321 18.0409 4.25641C18.824 4.24004 19.5983 4.4233 20.2909 4.78891C20.917 5.13222 21.4571 5.61303 21.8706 6.19516C22.2936 6.80599 22.5968 7.49157 22.7641 8.21547C22.9475 8.99282 23.0129 9.79334 22.9581 10.5902H15.6672C15.6081 11.3388 15.8417 12.0812 16.3188 12.6611ZM19.5175 7.06516C19.3135 6.86109 19.0681 6.70311 18.7979 6.60187C18.5276 6.50064 18.2388 6.45849 17.9509 6.47828C17.569 6.46372 17.1898 6.54834 16.8503 6.72391C16.5812 6.87208 16.3436 7.07144 16.1509 7.31078C15.9802 7.53518 15.853 7.78957 15.7759 8.06079C15.7065 8.28698 15.6631 8.52037 15.6466 8.75641H20.1625C20.1232 8.14108 19.899 7.55196 19.5194 7.0661L19.5175 7.06516Z" fill="white"/>
<path d="M15.0644 1.48235H20.7231V2.92891H15.0644V1.48235Z" fill="white"/>
</svg>
