<svg width="21" height="18" viewBox="0 0 21 18" fill="none" xmlns="http://www.w3.org/2000/svg">
<path d="M19.4068 1.0164L1.34544 7.98271C0.112722 8.4773 0.120033 9.16486 1.12075 9.47145L5.62532 10.8774L7.34887 16.1617C7.5584 16.7401 7.45511 16.9694 8.06245 16.9694C8.53115 16.9694 8.73907 16.7558 9.00012 16.5007C9.16612 16.3383 10.1517 15.38 11.2523 14.31L15.9379 17.772C16.8001 18.2476 17.4226 18.0012 17.6373 16.9712L20.7131 2.47716C21.028 1.21466 20.2318 0.642001 19.4068 1.0164ZM6.33226 10.5544L16.4856 4.1486C16.9924 3.84121 17.4572 4.00648 17.0756 4.34519L8.38171 12.1893L8.0432 15.7998L6.33226 10.5544V10.5544Z" fill="white"/>
</svg>
