<svg width="23" height="24" viewBox="0 0 23 24" fill="none" xmlns="http://www.w3.org/2000/svg">
<path fill-rule="evenodd" clip-rule="evenodd" d="M12.0265 0.697926C14.8125 0.834849 17.4085 1.98372 19.3913 3.96786C21.5064 6.08419 22.6705 8.89736 22.6694 11.889C22.6668 18.0626 17.641 23.0858 11.4671 23.0858C9.14532 23.0858 7.30035 22.3724 6.10905 21.7229L0.170471 23.2799L1.75977 17.4778C0.779439 15.7798 0.263594 13.8536 0.264402 11.8802C0.266881 5.70671 5.29227 0.684082 11.4669 0.684082L12.0265 0.697926ZM6.38416 19.6959L6.72421 19.8976C8.15378 20.7455 9.79244 21.1941 11.4632 21.1948H11.467C16.599 21.1948 20.7759 17.0199 20.7779 11.8884C20.7789 9.40175 19.8113 7.06355 18.0534 5.30451C16.2954 3.54535 13.9577 2.57601 11.4707 2.5752C6.33479 2.5752 2.15786 6.74968 2.15582 11.8808C2.15512 13.6393 2.64735 15.3519 3.5794 16.8335L3.80078 17.1857L2.86017 20.6198L6.38416 19.6959ZM17.1107 14.5516C17.0407 14.4348 16.8542 14.3649 16.5742 14.2248C16.2943 14.0848 14.9182 13.408 14.6616 13.3145C14.405 13.2213 14.2184 13.1746 14.0318 13.4546C13.8453 13.7346 13.3088 14.3649 13.1455 14.5516C12.9823 14.7383 12.819 14.7617 12.5391 14.6216C12.2592 14.4816 11.3573 14.1861 10.2881 13.233C9.456 12.4911 8.89424 11.575 8.73095 11.2949C8.56771 11.0149 8.71354 10.8634 8.85366 10.724C8.9796 10.5986 9.13362 10.3972 9.27358 10.2338C9.41353 10.0705 9.46015 9.95369 9.55349 9.76705C9.64677 9.58031 9.60011 9.41699 9.53015 9.27694C9.46015 9.13684 8.90038 7.75975 8.66714 7.19956C8.43988 6.65407 8.20912 6.72792 8.03732 6.71931C7.87424 6.71123 7.68746 6.70945 7.50089 6.70945C7.31426 6.70945 7.01102 6.77942 6.75444 7.05957C6.49787 7.33961 5.77476 8.01652 5.77476 9.39351C5.77476 10.7707 6.77778 12.1009 6.91773 12.2876C7.05769 12.4744 8.89149 15.3002 11.6994 16.5121C12.3672 16.8004 12.8886 16.9725 13.2951 17.1014C13.9657 17.3144 14.5758 17.2844 15.0581 17.2123C15.5959 17.132 16.7142 16.5355 16.9474 15.882C17.1807 15.2284 17.1807 14.6683 17.1107 14.5516Z" fill="white"/>
</svg>
