<svg width="22" height="18" viewBox="0 0 22 18" fill="none" xmlns="http://www.w3.org/2000/svg">
<path d="M20.4627 3.15625C20.9285 2.85974 21.5469 2.99716 21.8436 3.46289C22.1401 3.92868 22.0027 4.54709 21.537 4.84375L12.5457 10.5703C12.5344 10.5775 12.5232 10.585 12.5116 10.5918C12.054 10.8576 11.5339 10.997 11.0047 10.9971C10.4756 10.9971 9.95549 10.8575 9.49789 10.5918C9.48622 10.585 9.47413 10.5776 9.46274 10.5703L0.462736 4.84375C-0.00309518 4.54722 -0.140372 3.92879 0.156096 3.46289C0.45263 2.99706 1.07106 2.85978 1.53696 3.15625L10.5077 8.86523C10.6589 8.9518 10.8304 8.99707 11.0047 8.99707C11.1786 8.997 11.349 8.9514 11.4998 8.86523L20.4627 3.15625Z" fill="white"/>
<path d="M19.9998 3C19.9998 2.44772 19.5521 2 18.9998 2H2.99985C2.44756 2 1.99985 2.44772 1.99985 3V15C1.99985 15.5523 2.44756 16 2.99985 16H18.9998C19.5521 16 19.9998 15.5523 19.9998 15V3ZM21.9998 15C21.9998 16.6569 20.6567 18 18.9998 18H2.99985C1.34299 18 -0.000154142 16.6569 -0.000154142 15V3C-0.000154142 1.34315 1.34299 0 2.99985 0H18.9998C20.6567 0 21.9998 1.34315 21.9998 3V15Z" fill="white"/>
</svg>
