<svg width="23" height="22" viewBox="0 0 23 22" fill="none" xmlns="http://www.w3.org/2000/svg">
<path d="M11.5005 0.0908203C8.53785 0.0908203 8.16605 0.103775 7.00244 0.15673C5.84112 0.209911 5.04841 0.393775 4.3548 0.663548C3.63732 0.942184 3.0287 1.31491 2.42236 1.9215C1.81556 2.52787 1.44284 3.1365 1.1633 3.85377C0.892856 4.54764 0.708771 5.34059 0.6565 6.5015C0.604456 7.66514 0.59082 8.03718 0.59082 10.9999C0.59082 13.9626 0.604002 14.3333 0.656728 15.497C0.710135 16.6583 0.893993 17.451 1.16353 18.1447C1.44239 18.8622 1.8151 19.4708 2.42167 20.0772C3.02779 20.684 3.63641 21.0576 4.35343 21.3363C5.0475 21.606 5.84043 21.7899 7.00154 21.8431C8.16514 21.896 8.53672 21.909 11.4991 21.909C14.462 21.909 14.8327 21.896 15.9963 21.8431C17.1576 21.7899 17.9512 21.606 18.6453 21.3363C19.3625 21.0576 19.9702 20.684 20.5764 20.0772C21.1832 19.4708 21.5559 18.8622 21.8354 18.1449C22.1036 17.451 22.2877 16.6581 22.3422 15.4972C22.3945 14.3335 22.4081 13.9626 22.4081 10.9999C22.4081 8.03718 22.3945 7.66537 22.3422 6.50173C22.2877 5.34037 22.1036 4.54764 21.8354 3.854C21.5559 3.1365 21.1832 2.52787 20.5764 1.9215C19.9696 1.31468 19.3628 0.941957 18.6446 0.663548C17.9492 0.393775 17.156 0.209911 15.9947 0.15673C14.8311 0.103775 14.4606 0.0908203 11.4971 0.0908203H11.5005ZM10.5219 2.05673C10.8123 2.05627 11.1364 2.05673 11.5005 2.05673C14.4131 2.05673 14.7583 2.06718 15.9085 2.11946C16.9721 2.16809 17.5494 2.34582 17.9339 2.49514C18.443 2.69287 18.806 2.92923 19.1875 3.31105C19.5693 3.69287 19.8057 4.0565 20.0039 4.56559C20.1532 4.94968 20.3311 5.52696 20.3795 6.59059C20.4318 7.74059 20.4432 8.08605 20.4432 10.9974C20.4432 13.9088 20.4318 14.2542 20.3795 15.4042C20.3309 16.4679 20.1532 17.0451 20.0039 17.4292C19.8061 17.9383 19.5693 18.3008 19.1875 18.6824C18.8057 19.0642 18.4432 19.3006 17.9339 19.4983C17.5499 19.6483 16.9721 19.8256 15.9085 19.8742C14.7586 19.9265 14.4131 19.9379 11.5005 19.9379C8.58762 19.9379 8.24241 19.9265 7.09244 19.8742C6.02884 19.8251 5.45158 19.6474 5.06682 19.4981C4.55775 19.3004 4.19412 19.064 3.81231 18.6822C3.43051 18.3004 3.19415 17.9376 2.99597 17.4283C2.84666 17.0442 2.66871 16.467 2.6203 15.4033C2.56803 14.2533 2.55758 13.9079 2.55758 10.9947C2.55758 8.0815 2.56803 7.73787 2.6203 6.58787C2.66894 5.52423 2.84666 4.94696 2.99597 4.56241C3.1937 4.05332 3.43051 3.68968 3.81231 3.30787C4.19412 2.92605 4.55775 2.68968 5.06682 2.4915C5.45135 2.3415 6.02884 2.16423 7.09244 2.11537C8.09877 2.06991 8.48876 2.05627 10.5219 2.054V2.05673ZM17.3235 3.86809C16.6008 3.86809 16.0144 4.45377 16.0144 5.17673C16.0144 5.89946 16.6008 6.48582 17.3235 6.48582C18.0462 6.48582 18.6325 5.89946 18.6325 5.17673C18.6325 4.454 18.0462 3.86764 17.3235 3.86764V3.86809ZM11.5005 5.39764C8.40672 5.39764 5.89839 7.90605 5.89839 10.9999C5.89839 14.0938 8.40672 16.601 11.5005 16.601C14.5943 16.601 17.1017 14.0938 17.1017 10.9999C17.1017 7.90605 14.594 5.39764 11.5003 5.39764H11.5005ZM11.5005 7.36355C13.5086 7.36355 15.1367 8.9915 15.1367 10.9999C15.1367 13.0081 13.5086 14.6363 11.5005 14.6363C9.49214 14.6363 7.86424 13.0081 7.86424 10.9999C7.86424 8.9915 9.49214 7.36355 11.5005 7.36355V7.36355Z" fill="white"/>
</svg>
